HIERARCHY
ROOT joint_Root
{
	OFFSET 0.0 0.0 0.0
	CHANNELS 6 Xposition Yposition Zposition Zrotation Xrotation Yrotation 
	JOINT Hips
	{
		OFFSET -17.1583 93.1646 452.98
		CHANNELS 6 Xposition Yposition Zposition Zrotation Xrotation Yrotation 
		JOINT Spine
		{
			OFFSET 15.7357 0.0 0.0
			CHANNELS 6 Xposition Yposition Zposition Zrotation Xrotation Yrotation 
			JOINT Chest
			{
				OFFSET 8.98455 -0.406207 0.0
				CHANNELS 6 Xposition Yposition Zposition Zrotation Xrotation Yrotation 
				JOINT Neck
				{
					OFFSET 16.3773 0.0 0.0
					CHANNELS 6 Xposition Yposition Zposition Zrotation Xrotation Yrotation 
					JOINT Head
					{
						OFFSET 6.45672 0.0 0.0
						CHANNELS 6 Xposition Yposition Zposition Zrotation Xrotation Yrotation 
						End Site
						{
							OFFSET 0.0 0.0 0.0
						}
					}
				}
				JOINT Shoulder_L
				{
					OFFSET 12.9942 -0.242716 4.98039
					CHANNELS 6 Xposition Yposition Zposition Zrotation Xrotation Yrotation 
					JOINT UpperArm_L
					{
						OFFSET 5.34809 0.0 0.0
						CHANNELS 6 Xposition Yposition Zposition Zrotation Xrotation Yrotation 
						JOINT LowerArm_L
						{
							OFFSET 24.3286 1.87007e-05 0.0
							CHANNELS 6 Xposition Yposition Zposition Zrotation Xrotation Yrotation 
							JOINT Hand_L
							{
								OFFSET 22.2916 0.0 0.0
								CHANNELS 6 Xposition Yposition Zposition Zrotation Xrotation Yrotation 
								End Site
								{
									OFFSET 0.0 0.0 0.0
								}
							}
						}
					}
				}
				JOINT Shoulder_R
				{
					OFFSET 12.9945 -0.242716 -4.98039
					CHANNELS 6 Xposition Yposition Zposition Zrotation Xrotation Yrotation 
					JOINT UpperArm_R
					{
						OFFSET -5.34813 0.0 0.0
						CHANNELS 6 Xposition Yposition Zposition Zrotation Xrotation Yrotation 
						JOINT LowerArm_R
						{
							OFFSET -24.3289 0.000322201 0.0
							CHANNELS 6 Xposition Yposition Zposition Zrotation Xrotation Yrotation 
							JOINT Hand_R
							{
								OFFSET -22.2915 -0.000108084 0.0
								CHANNELS 6 Xposition Yposition Zposition Zrotation Xrotation Yrotation 
								End Site
								{
									OFFSET 0.0 0.0 0.0
								}
							}
						}
					}
				}
			}
		}
		JOINT UpperLeg_L
		{
			OFFSET -2.19248 -6.46944 0.0
			CHANNELS 6 Xposition Yposition Zposition Zrotation Xrotation Yrotation 
			JOINT LowerLeg_L
			{
				OFFSET 39.0811 0.0 -1.23785e-05
				CHANNELS 6 Xposition Yposition Zposition Zrotation Xrotation Yrotation 
				JOINT Foot_L
				{
					OFFSET 40.9854 0.0 -1.26872e-05
					CHANNELS 6 Xposition Yposition Zposition Zrotation Xrotation Yrotation 
					JOINT Toes_L
					{
						OFFSET 11.7543 0.0 0.0
						CHANNELS 6 Xposition Yposition Zposition Zrotation Xrotation Yrotation 
						End Site
						{
							OFFSET 0.0 0.0 0.0
						}
					}
				}
			}
		}
		JOINT UpperLeg_R
		{
			OFFSET -2.19251 6.46944 0.0
			CHANNELS 6 Xposition Yposition Zposition Zrotation Xrotation Yrotation 
			JOINT LowerLeg_R
			{
				OFFSET -39.0811 -0.00228153 -0.0401928
				CHANNELS 6 Xposition Yposition Zposition Zrotation Xrotation Yrotation 
				JOINT Foot_R
				{
					OFFSET -40.9854 0.0 0.0
					CHANNELS 6 Xposition Yposition Zposition Zrotation Xrotation Yrotation 
					JOINT Toes_R
					{
						OFFSET -11.7543 0.0 0.0
						CHANNELS 6 Xposition Yposition Zposition Zrotation Xrotation Yrotation 
						End Site
						{
							OFFSET 0.0 0.0 0.0
						}
					}
				}
			}
		}
	}
}
MOTION
Frames:	6
Frame Time:	0.0333333
0.000000 0.000000 0.000000 0.000000 0.000000 -0.000000 -3.240350 91.682400 515.050000 -83.220300 -1.157840 177.342000 15.735700 0.000005 -0.000001 53.994300 84.788400 -51.085200 8.984550 -0.406207 -0.000000 0.839874 -6.300970 5.864590 16.377300 -0.000001 -0.000001 4.306350 4.509590 -2.014720 6.456720 -0.000001 -0.000000 -7.038670 7.095890 1.047700 12.994200 -0.242716 4.980390 -93.103800 8.935890 -70.756000 5.348090 -0.000007 -0.000001 -73.199600 -5.299030 -4.599360 24.328600 0.000019 0.000005 37.521400 18.582900 -67.462200 22.291600 -0.000001 0.000005 45.858900 4.437010 17.629100 12.994500 -0.242716 -4.980390 88.263600 4.171510 -67.376400 -5.348130 -0.000001 -0.000004 -71.717300 -0.374096 9.622720 -24.328900 0.000322 -0.000009 -1.082810 -7.226030 -8.537290 -22.291500 -0.000108 -0.000004 43.539500 5.526240 -7.631220 -2.192480 -6.469440 -0.000000 -171.817000 -23.611900 8.316130 39.081100 -0.000007 -0.000012 -0.028191 0.096427 16.296500 40.985400 -0.000006 -0.000013 -10.216100 -1.425020 -70.412100 11.754300 -0.000000 0.000003 0.001849 0.041327 -14.900300 -2.192510 6.469440 -0.000001 -172.233000 -1.480190 156.570000 -39.081100 -0.002282 -0.040193 0.003944 -0.002248 15.283500 -40.985400 0.000008 0.000006 -4.194640 -3.078980 -64.983800 -11.754300 -0.000006 -0.000006 -0.003776 0.216757 -7.776820
0.000000 0.000000 0.000000 0.000000 0.000000 -0.000000 -2.971860 91.335600 512.820000 -83.414300 -1.216890 177.133000 15.735700 0.000005 -0.000001 51.374000 84.931900 -48.467900 8.984550 -0.406207 -0.000000 0.330308 -6.514080 5.832010 16.377300 -0.000001 -0.000001 4.408530 4.692960 -2.243140 6.456720 -0.000001 -0.000000 -6.786400 7.309800 1.064460 12.994200 -0.242716 4.980390 -93.084900 8.886710 -70.767700 5.348090 -0.000007 -0.000001 -73.391500 -4.249280 -5.232270 24.328600 0.000019 0.000005 38.388000 18.299600 -68.380400 22.291600 -0.000001 0.000005 45.680300 4.426740 17.794500 12.994500 -0.242716 -4.980390 88.224500 4.286500 -67.475100 -5.348130 -0.000001 -0.000004 -71.575200 -0.311505 9.886090 -24.328900 0.000322 -0.000009 -0.735408 -5.804260 -7.222450 -22.291500 -0.000108 -0.000004 43.257900 5.525930 -7.617390 -2.192480 -6.469440 -0.000000 -171.504000 -22.635500 8.715050 39.081100 -0.000007 -0.000012 -0.032910 0.102414 17.814100 40.985400 -0.000006 -0.000013 -10.773400 -2.179370 -70.457700 11.754300 -0.000000 0.000003 0.000541 0.009660 -16.185200 -2.192510 6.469440 -0.000001 -171.999000 -1.022730 156.703000 -39.081100 -0.002282 -0.040193 0.003451 -0.000441 15.464000 -40.985400 0.000008 0.000006 -4.817880 -2.518710 -65.384700 -11.754300 -0.000006 -0.000006 -0.003989 0.218989 -7.685910
0.000000 0.000000 0.000000 0.000000 0.000000 -0.000000 -2.599550 91.021600 510.333000 -83.233100 -1.346230 176.758000 15.735700 0.000005 -0.000001 49.613700 85.194300 -46.557900 8.984550 -0.406207 -0.000000 -0.262902 -6.440180 6.098470 16.377300 -0.000001 -0.000001 4.541980 4.789700 -2.451790 6.456720 -0.000001 -0.000000 -6.789720 7.259010 0.879174 12.994200 -0.242716 4.980390 -93.126300 8.993900 -70.741500 5.348090 -0.000007 -0.000001 -73.387300 -2.713730 -5.706630 24.328600 0.000019 0.000005 37.864600 18.199500 -68.114000 22.291600 -0.000001 0.000005 45.684300 4.436160 17.643000 12.994500 -0.242716 -4.980390 88.095800 4.641390 -67.663700 -5.348130 -0.000001 -0.000004 -71.097100 -0.470027 10.011500 -24.328900 0.000322 -0.000009 -0.585429 -5.159650 -6.470680 -22.291500 -0.000108 -0.000004 43.195600 5.526930 -7.661050 -2.192480 -6.469440 -0.000000 -170.608000 -21.940800 8.997470 39.081100 -0.000007 -0.000012 -0.034214 0.096857 19.455000 40.985400 -0.000006 -0.000013 -11.846400 -2.545150 -69.976400 11.754300 -0.000000 0.000003 -0.002986 -0.040455 -18.222000 -2.192510 6.469440 -0.000001 -171.231000 -2.076710 155.036000 -39.081100 -0.002282 -0.040193 0.036380 -0.092345 19.696400 -40.985400 0.000008 0.000006 -0.977910 -2.992920 -64.081900 -11.754300 -0.000006 -0.000006 -0.003646 0.215371 -7.833240
0.000000 0.000000 0.000000 0.000000 0.000000 -0.000000 -2.150150 90.702200 507.521000 -82.955200 -1.504950 176.477000 15.735700 0.000005 -0.000001 48.554900 85.528400 -45.290200 8.984550 -0.406207 -0.000000 -0.877920 -6.164320 6.484350 16.377300 -0.000001 -0.000001 4.618220 4.721500 -2.648590 6.456720 -0.000001 -0.000000 -6.731560 7.052720 0.475138 12.994200 -0.242716 4.980390 -93.216200 9.236950 -70.706700 5.348090 -0.000007 -0.000001 -73.327200 -1.098220 -5.727990 24.328600 0.000019 0.000005 37.350400 18.872200 -67.031300 22.291600 -0.000001 0.000005 45.684000 4.453250 17.366000 12.994500 -0.242716 -4.980390 87.942700 5.050790 -67.803500 -5.348130 -0.000001 -0.000004 -70.500600 -0.160306 9.779280 -24.328900 0.000322 -0.000009 -0.456662 -4.483480 -5.808130 -22.291500 -0.000108 -0.000004 43.150900 5.523250 -7.501200 -2.192480 -6.469440 -0.000000 -169.567000 -21.115100 9.194400 39.081100 -0.000007 -0.000012 -0.032415 0.082277 21.503300 40.985400 -0.000006 -0.000013 -11.973100 -3.273880 -68.859800 11.754300 -0.000000 0.000003 -0.011077 -0.111527 -21.122100 -2.192510 6.469440 -0.000001 -170.456000 -3.340680 154.261000 -39.081100 -0.002282 -0.040193 0.084343 -0.188519 23.258700 -40.985400 0.000008 0.000006 1.906470 -4.227150 -63.032300 -11.754300 -0.000006 -0.000006 -0.003311 0.211741 -7.981000
0.000000 0.000000 0.000000 0.000000 0.000000 -0.000000 -1.725200 90.476100 504.464000 -82.864900 -1.590600 176.523000 15.735700 0.000005 -0.000001 48.943200 85.801700 -45.541100 8.984550 -0.406207 -0.000000 -1.254590 -5.781390 6.743100 16.377300 -0.000001 -0.000001 4.434220 4.569850 -2.719940 6.456720 -0.000001 -0.000000 -6.400640 6.819310 0.007196 12.994200 -0.242716 4.980390 -93.259100 9.435280 -70.845000 5.348090 -0.000007 -0.000001 -73.539000 0.264724 -5.339330 24.328600 0.000019 0.000005 36.339700 20.308200 -64.742100 22.291600 -0.000001 0.000005 46.025000 4.453880 17.355900 12.994500 -0.242716 -4.980390 87.768400 5.532770 -67.992700 -5.348130 -0.000001 -0.000004 -70.053100 1.410240 8.826650 -24.328900 0.000322 -0.000009 -0.362302 -4.190040 -4.932450 -22.291500 -0.000108 -0.000004 43.315800 5.523840 -7.527140 -2.192480 -6.469440 -0.000000 -168.910000 -19.789800 9.073400 39.081100 -0.000007 -0.000012 -0.022784 0.050209 24.408200 40.985400 -0.000006 -0.000013 -11.763800 -5.091690 -66.701300 11.754300 -0.000000 0.000003 -0.028701 -0.211457 -25.236700 -2.192510 6.469440 -0.000001 -170.035000 -3.859210 154.282000 -39.081100 -0.002282 -0.040193 0.115646 -0.223186 26.717700 -40.985400 0.000008 0.000006 1.942040 -5.176940 -63.916700 -11.754300 -0.000006 -0.000006 -0.004596 0.225165 -7.434330
0.000000 0.000000 0.000000 0.000000 0.000000 -0.000000 -1.305880 90.334100 501.169000 -82.919800 -1.824070 177.095000 15.735700 0.000005 -0.000001 49.727400 85.907000 -46.272900 8.984550 -0.406207 -0.000000 -1.344310 -5.564850 6.845850 16.377300 -0.000001 -0.000001 4.556380 4.373480 -2.679400 6.456720 -0.000001 -0.000000 -6.170970 6.511590 -0.578151 12.994200 -0.242716 4.980390 -93.268800 9.530580 -70.968700 5.348090 -0.000007 -0.000001 -73.614300 1.656060 -4.569490 24.328600 0.000019 0.000005 33.860300 22.134000 -60.683300 22.291600 -0.000001 0.000005 45.758300 4.476350 16.989100 12.994500 -0.242716 -4.980390 87.694400 5.799500 -68.275000 -5.348130 -0.000001 -0.000004 -70.215300 3.961800 7.268040 -24.328900 0.000322 -0.000009 -0.346718 -4.826940 -4.101500 -22.291500 -0.000108 -0.000004 44.355900 5.509910 -6.939680 -2.192480 -6.469440 -0.000000 -168.469000 -18.136100 8.426410 39.081100 -0.000007 -0.000012 0.003956 -0.007203 28.770200 40.985400 -0.000006 -0.000013 -10.628000 -7.780470 -63.176300 11.754300 -0.000000 0.000003 -0.054451 -0.313304 -29.496600 -2.192510 6.469440 -0.000001 -169.368000 -2.745500 155.673000 -39.081100 -0.002282 -0.040193 0.167857 -0.292736 29.341500 -40.985400 0.000008 0.000006 2.692990 -4.406770 -66.107300 -11.754300 -0.000006 -0.000006 -0.006136 0.239734 -6.840440
